<svg xmlns="http://www.w3.org/2000/svg" viewBox="0 0 91.22 100"><path d="M71.1 48.23c0-1.43 0-2.84-.1-4.23 0-1.09-.13-2.16-.22-3.23-.18-2.27-.41-4.49-.75-6.64-.17-1.11-.38-2.19-.6-3.27a72.55 72.55 0 0 0-2.27-8.67c-.25-.75-.51-1.48-.78-2.2-.59-1.56-1.22-3-1.9-4.44-.35-.71-.69-1.42-1.06-2.1C58.85 5.1 52.61 0 45.61 0c-11 0-20.2 12.65-23.81 30.86 1.78-1.36 3.62-2.69 5.58-4C31 13.64 37.91 4.48 45.61 4.48c4.84 0 9.35 3.63 12.94 9.6.4.65.77 1.34 1.14 2a47 47 0 0 1 2 4.27c.28.69.53 1.41.78 2.13.5 1.4 1 2.85 1.39 4.36q.43 1.61.81 3.27c.46 2.06.85 4.2 1.15 6.41.15 1 .29 2.06.39 3.13a84.71 84.71 0 0 1 .43 8.53 77.59 77.59 0 0 1-4.17 25.7c-.25.72-.51 1.44-.78 2.13-.62 1.53-1.29 2.94-2 4.29-.36.69-.73 1.36-1.11 2-2.44 4.05-5.3 7-8.39 8.49a5.68 5.68 0 0 0-4.57-2.41 5.79 5.79 0 0 0 0 11.57 5.71 5.71 0 0 0 5.57-4.69C55.9 93.38 60.1 89.07 63.41 83c.37-.67.72-1.38 1.06-2.09q1-2.11 1.91-4.45c.27-.72.53-1.45.78-2.2a83.14 83.14 0 0 0 3.94-26.03z" fill="#1d3bd4"/><path d="M36.26 74.69C23 78.14 11.58 76.77 7.72 70.1c-2.42-4.19-1.52-9.91 1.85-16 .37-.66.78-1.33 1.21-2a46.78 46.78 0 0 1 2.7-3.86c.46-.58 1-1.17 1.46-1.75 1-1.13 2-2.26 3.08-3.38.78-.78 1.59-1.56 2.43-2.33 1.55-1.43 3.2-2.84 5-4.21.83-.64 1.65-1.28 2.52-1.9C30.19 33 32.59 31.48 35.1 30a77.72 77.72 0 0 1 24.34-9.24 43 43 0 0 0-2-4.24 82.63 82.63 0 0 0-24.52 9.6c-1.24.72-2.43 1.46-3.61 2.21-.92.59-1.81 1.19-2.69 1.8-1.87 1.29-3.68 2.61-5.37 4-.88.71-1.71 1.43-2.53 2.15a71.93 71.93 0 0 0-6.38 6.31c-.53.59-1 1.18-1.52 1.77Q9.2 46.3 7.88 48.23c-.44.65-.88 1.31-1.28 2-5 8.13-6.25 16.09-2.75 22.15 3.37 5.84 10.48 8.73 19.51 8.73a60.61 60.61 0 0 0 19.11-3.53c-2.06-.9-4.13-1.84-6.21-2.89zM6.6 46.26c.91-1.3 1.89-2.6 3-3.9-2.26-4.1-3.38-8-3.15-11.43a5.76 5.76 0 0 0 2.23-10.71 5.87 5.87 0 0 0-2.89-.77 5.81 5.81 0 0 0-5 2.89 5.72 5.72 0 0 0-.59 4.39 5.64 5.64 0 0 0 1.86 2.78C1.37 34.57 3 40.36 6.6 46.26zM72.56 36.28c.29 2.23.52 4.49.65 6.82 9.64 9.8 14.14 20.34 10.3 27-2.42 4.19-7.83 6.28-14.8 6.41q-.87 2.35-1.88 4.51h1c9 0 16.14-2.89 19.51-8.73 5.56-9.51-.82-23.77-14.78-36.01z" fill="#1d3bd4"/><path d="M45.61 71.56c-1-.4-1.93-.79-2.91-1.23a86.795 86.795 0 0 1-7.6-3.9A77.78 77.78 0 0 1 14.93 50a44 44 0 0 0-2.64 3.9 82.87 82.87 0 0 0 20.58 16.4c1.24.72 2.48 1.38 3.72 2 1 .51 1.94 1 2.9 1.43q3.09 1.47 6.12 2.66c1.06.4 2.1.77 3.15 1.13a71.29 71.29 0 0 0 8.64 2.38 42.75 42.75 0 0 0 2-4.23c-1.46-.27-2.95-.59-4.47-1-1.07-.28-2.15-.6-3.24-.93-1.97-.61-4.02-1.34-6.08-2.18zM90.45 22.34a5.81 5.81 0 0 0-5-2.89 5.63 5.63 0 0 0-1.9.37c-4-3.09-9.84-4.56-16.71-4.4.68 1.45 1.31 3 1.89 4.53 4.71.09 8.68 1.09 11.52 3a5.72 5.72 0 0 0 .2 5.17 5.81 5.81 0 0 0 5 2.89 5.79 5.79 0 0 0 5-8.68z" fill="#1d3bd4"/><circle cx="45.61" cy="48.81" r="11.16" fill="#f39a2c"/></svg>